Patient4_TMGait_0pt3_02_right_24_GRF.mot
version=1
nRows=39
nColumns=19
inDegrees=no
endheader
time	F1x	F1y	F1z	M1x	M1y	M1z	F2x	F2y	F2z	M2x	M2y	M2z	EC1x	EC1y	EC1z	EC2x	EC2y	EC2z
46.1	-11.8563	782.558	57.3792	-253.9875	-60.0353	802.3726	3.854	5.4894	-1.0995	1.6306	0.39314	2.002	-0.0592	0.0182	-0.0073	-0.0462	0.0165	0.9585
46.1195	-11.1209	800.5389	56.565	-259.2485	-58.5463	816.6207	2.5598	3.9822	-0.7491	1.2147	0.29999	1.7385	-0.0592	0.0182	-0.0073	-0.0462	0.0165	0.9585
46.139	-9.9156	820.3438	55.7327	-265.2628	-56.8646	831.8689	1.4522	2.7217	-0.44748	0.86891	0.22298	1.5262	-0.0592	0.0182	-0.0073	-0.0462	0.0165	0.9585
46.1585	-8.1936	839.9503	54.8475	-271.4645	-54.9621	846.1877	0.596	1.7886	-0.21338	0.61433	0.16391	1.3885	-0.0592	0.0182	-0.0073	-0.0462	0.0165	0.9585
46.178	-5.9427	857.1084	53.8274	-277.169	-52.7665	857.4576	-0.010276	1.1755	-0.046437	0.44736	0.11951	1.324	-0.0592	0.0182	-0.0073	-0.0462	0.0165	0.9585
46.1975	-3.1869	869.7051	52.59	-281.6962	-50.211	863.7432	-0.40612	0.8203	0.062143	0.3499	0.087545	1.3104	-0.0592	0.0182	-0.0073	-0.0462	0.0165	0.9585
46.217	0.0067931	876.0649	51.093	-284.471	-47.2805	863.583	-0.64417	0.63675	0.12566	0.29679	0.067012	1.312	-0.0592	0.0182	-0.0073	-0.0462	0.0165	0.9585
46.2365	3.526	875.1868	49.3605	-285.1075	-44.0395	856.2123	-0.77469	0.52963	0.15907	0.25865	0.05702	1.2797	-0.0592	0.0182	-0.0073	-0.0462	0.0165	0.9585
46.256	7.2212	866.9193	47.4729	-283.4769	-40.6162	841.7149	-0.84055	0.40198	0.17646	0.20427	0.054406	1.1523	-0.0592	0.0182	-0.0073	-0.0462	0.0165	0.9585
46.2755	10.931	852.0289	45.5506	-279.737	-37.1771	821.0565	-0.87275	0.15701	0.19103	0.1004	0.051433	0.85722	-0.0592	0.0182	-0.0073	-0.0462	0.0165	0.9585
46.295	14.5254	832.1029	43.744	-274.3093	-33.9013	795.9545	-0.88868	-0.2958	0.21325	-0.085347	0.038637	0.31669	-0.0592	0.0182	-0.0073	-0.0462	0.0165	0.9585
46.3145	17.9436	809.294	42.2209	-267.8136	-30.9651	768.5952	-0.89057	-1.0283	0.24899	-0.37913	0.0075065	-0.53464	-0.0592	0.0182	-0.0073	-0.0462	0.0165	0.9585
46.334	21.2022	785.9913	41.1291	-260.9765	-28.5081	741.2927	-0.86397	-2.0782	0.30131	-0.79386	-0.052209	-1.7328	-0.0592	0.0182	-0.0073	-0.0462	0.0165	0.9585
46.3535	24.3779	764.4537	40.5503	-254.5207	-26.5897	716.1425	-0.78101	-3.4192	0.36724	-1.3168	-0.14795	-3.2484	-0.0592	0.0182	-0.0073	-0.0462	0.0165	0.9585
46.373	27.5657	746.53	40.4763	-249.069	-25.1754	694.7819	-0.60411	-4.9203	0.43549	-1.8957	-0.28103	-4.9424	-0.0592	0.0182	-0.0073	-0.0462	0.0165	0.9585
46.3925	30.8447	733.4284	40.8254	-245.0581	-24.1583	678.2145	-0.29165	-6.2995	0.486	-2.4206	-0.4468	-6.5172	-0.0592	0.0182	-0.0073	-0.0462	0.0165	0.9585
46.412	34.2678	725.5647	41.4816	-242.6706	-23.4005	666.7004	0.1948	-7.0709	0.48918	-2.7024	-0.63198	-7.455	-0.0592	0.0182	-0.0073	-0.0462	0.0165	0.9585
46.4315	37.8322	722.5134	42.3343	-241.7996	-22.7838	659.7578	0.88459	-6.5014	0.40742	-2.4563	-0.80789	-6.961	-0.0592	0.0182	-0.0073	-0.0462	0.0165	0.9585
46.451	41.4447	723.043	43.3026	-242.0465	-22.2491	656.231	1.7832	-3.5893	0.19289	-1.2931	-0.92092	-3.9341	-0.0592	0.0182	-0.0073	-0.0462	0.0165	0.9585
46.4705	44.9158	725.2727	44.3379	-242.7707	-21.8016	654.4522	2.8464	2.9108	-0.21454	1.2702	-0.88402	3.0017	-0.0592	0.0182	-0.0073	-0.0462	0.0165	0.9585
46.49	47.9615	726.9107	45.4083	-243.1769	-21.4973	652.4664	3.9456	14.3756	-0.87939	5.7654	-0.57238	15.3803	-0.0592	0.0182	-0.0073	-0.0462	0.0165	0.9585
46.5095	50.2235	725.536	46.4779	-242.4251	-21.4228	648.2624	4.8267	32.0616	-1.8527	12.6734	0.17671	34.6207	-0.0592	0.0182	-0.0073	-0.0462	0.0165	0.9585
46.529	51.3351	718.9441	47.4733	-239.7617	-21.645	640.0344	5.055	56.7038	-3.1566	22.2674	1.5647	61.593	-0.0592	0.0182	-0.0073	-0.0462	0.0165	0.9585
46.5485	51.0135	705.5056	48.2656	-234.6491	-22.1624	626.4482	3.9926	88.0376	-4.8043	34.4253	3.8479	96.0962	-0.0592	0.0182	-0.0073	-0.0462	0.0165	0.9585
46.568	49.1495	684.475	48.6989	-226.8711	-22.8964	606.8793	1.2275	124.4504	-6.7989	48.4953	7.1761	136.4505	-0.0592	0.0182	-0.0073	-0.0462	0.0165	0.9585
46.5875	45.8901	656.228	48.6555	-216.6093	-23.7188	581.5913	-3.0569	162.9354	-9.2153	63.2795	11.5457	179.3972	-0.0592	0.0182	-0.0073	-0.0462	0.0165	0.9585
46.607	41.6591	622.3349	48.1065	-204.4599	-24.4852	551.7908	-8.3094	200.3411	-12.063	77.5414	16.7406	221.4488	-0.0592	0.0182	-0.0073	-0.0462	0.0165	0.9585
46.6265	37.089	585.1943	47.1148	-191.2979	-25.0514	519.338	-14.0135	235.2352	-15.1575	90.7345	22.3567	260.9765	-0.0592	0.0182	-0.0073	-0.0462	0.0165	0.9585
46.646	32.8131	547.1636	45.7627	-177.9745	-25.2794	486.0597	-19.7771	267.7433	-18.2524	102.9358	27.9857	298.0416	-0.0592	0.0182	-0.0073	-0.0462	0.0165	0.9585
46.6655	29.2482	509.87	44.0778	-165.0767	-25.0526	453.2259	-25.2657	298.6222	-21.141	114.4719	33.29	333.3637	-0.0592	0.0182	-0.0073	-0.0462	0.0165	0.9585
46.685	26.5281	474.0673	42.0384	-152.8775	-24.3079	421.4508	-30.1516	328.5871	-23.7288	125.6439	38.0584	367.587	-0.0592	0.0182	-0.0073	-0.0462	0.0165	0.9585
46.7045	24.5698	439.8294	39.638	-141.4016	-23.0643	390.8288	-34.1479	357.9191	-26.0366	136.5713	42.2128	400.8683	-0.0592	0.0182	-0.0073	-0.0462	0.0165	0.9585
46.724	23.1599	406.808	36.9125	-130.5165	-21.4163	361.1274	-37.0941	386.4486	-28.129	147.1878	45.7584	432.8788	-0.0592	0.0182	-0.0073	-0.0462	0.0165	0.9585
46.7435	22.0536	374.4837	33.9235	-120.0189	-19.4909	331.975	-38.9567	413.8825	-30.0687	157.3725	48.7395	463.1705	-0.0592	0.0182	-0.0073	-0.0462	0.0165	0.9585
46.763	21.0313	342.3573	30.7395	-109.7062	-17.4102	303.0133	-39.7735	440.167	-31.9199	167.093	51.224	491.5704	-0.0592	0.0182	-0.0073	-0.0462	0.0165	0.9585
46.7825	19.8973	310.0586	27.4332	-99.4169	-15.2886	273.9832	-39.6238	465.6014	-33.7464	176.4531	53.2913	518.3051	-0.0592	0.0182	-0.0073	-0.0462	0.0165	0.9585
46.802	18.4849	277.3717	24.0901	-89.0425	-13.2378	244.7407	-38.6121	490.7375	-35.5968	185.6563	55.0136	543.888	-0.0592	0.0182	-0.0073	-0.0462	0.0165	0.9585
46.8215	16.6793	244.2365	20.8016	-78.5289	-11.3551	215.2545	-36.8445	516.2107	-37.5208	194.9392	56.4651	568.9337	-0.0592	0.0182	-0.0073	-0.0462	0.0165	0.9585
46.841	14.4277	210.8016	17.6584	-67.8948	-9.7167	185.6527	-34.4263	542.5696	-39.5959	204.5063	57.7502	593.9967	-0.0592	0.0182	-0.0073	-0.0462	0.0165	0.9585
